<?xml version="1.0" encoding="UTF-8"?>
<svg width="101px" height="97px" viewBox="0 0 101 97" version="1.1" xmlns="http://www.w3.org/2000/svg" xmlns:xlink="http://www.w3.org/1999/xlink">
    <!-- Generator: sketchtool 55.2 (78181) - https://sketchapp.com -->
    <title>95873994-0274-4715-91C6-3EC6AF76C05B</title>
    <desc>Created with sketchtool.</desc>
    <g id="escritorio" stroke="none" stroke-width="1" fill="none" fill-rule="evenodd">
        <g id="Desktop-HD" transform="translate(-1168.000000, -742.000000)">
            <g id="destacado" transform="translate(135.000000, 681.000000)">
                <g id="icon-4" transform="translate(1032.000000, 61.000000)">
                    <circle id="Oval-Copy-4" fill="#E5CC51" cx="20" cy="78" r="19"></circle>
                    <rect id="Rectangle" fill="#000000" fill-rule="nonzero" x="35" y="57" width="6" height="4"></rect>
                    <rect id="Rectangle" fill="#000000" fill-rule="nonzero" x="35" y="63" width="10" height="4"></rect>
                    <path d="M100.463128,72.1625978 L81.5004798,53.4291375 L81.5004798,11.8125499 C81.5004798,9.01662673 79.2059033,6.7500511 76.3754398,6.7500511 L42.0373516,6.7500511 C41.2458532,2.89875516 37.7991037,0 33.6667199,0 C29.5343361,0 26.0877467,2.89875516 25.2962483,6.7500511 L25.12504,6.7500511 C22.2945765,6.7500511 20,9.01662673 20,11.8125499 L20,75.9374817 C20,78.7334048 22.2945765,80.9999854 25.12504,80.9999854 L76.3754398,80.9999854 C79.2059033,80.9999854 81.5004798,78.7334048 81.5004798,75.9374817 L81.5004798,68.0700422 L93.0540816,79.4812308 C94.0355268,80.455129 95.3699591,81.0018789 96.7612473,80.9999854 C98.1517347,80.9999854 99.4850458,80.4537052 100.467612,79.4818636 C102.512503,77.4595536 102.510581,74.1825348 100.463128,72.1625978 Z M33.6667199,3.37494645 C35.8980342,3.37494645 37.7952599,4.78390314 38.498992,6.7498929 L28.834608,6.7498929 C29.5381799,4.78390314 31.4354056,3.37494645 33.6667199,3.37494645 Z M78.0838398,75.9374817 C78.0838398,76.869456 77.3189276,77.625034 76.3754398,77.625034 L25.12504,77.625034 C24.1815522,77.625034 23.4166399,76.869456 23.4166399,75.9374817 L23.4166399,11.8125499 C23.4166399,10.8805755 24.1815522,10.1249976 25.12504,10.1249976 L38.7917599,10.1249976 L38.7917599,28.6874403 C38.7917599,29.6194147 38.0268477,30.3749927 37.0833598,30.3749927 C36.139872,30.3749927 35.3749598,29.6194147 35.3749598,28.6874403 L35.3749598,13.499944 L31.95848,13.499944 L31.95848,28.6874403 C31.95848,31.4833635 34.2530565,33.7499391 37.08352,33.7499391 C39.9139835,33.7499391 42.20856,31.4833635 42.20856,28.6874403 L42.20856,10.1249976 L76.3754398,10.1249976 C77.3189276,10.1249976 78.0838398,10.8805755 78.0838398,11.8125499 L78.0838398,50.0538746 L72.9587999,44.990743 L72.9587999,15.1874963 C72.9587999,14.2555219 72.1938876,13.499944 71.2503998,13.499944 L45.6251999,13.499944 L45.6251999,16.8748905 L69.5419998,16.8748905 L69.5419998,41.9839352 L60.0555508,37.309034 C59.5739572,37.0706219 59.0066793,37.0706219 58.5250857,37.309034 C58.4334756,37.35428 58.3490726,37.4079109 58.2696345,37.4662878 L58.2669118,37.4626492 L53.418624,41.0502206 L50.6852159,31.6002756 C50.6054575,31.3238948 50.4557102,31.0721937 50.2499079,30.8690609 C49.5825316,30.210145 48.500988,30.2104615 47.833932,30.8695355 L43.2095443,35.4374914 L30.25008,35.4374914 C29.3065921,35.4374914 28.5416799,36.1930694 28.5416799,37.1250438 L28.5416799,72.5625352 C28.5416799,73.4945096 29.3065921,74.2500875 30.25008,74.2500875 L71.2503998,74.2500875 C72.1938876,74.2500875 72.9587999,73.4945096 72.9587999,72.5625352 L72.9587999,59.6335461 L78.0838398,64.6954121 L78.0838398,75.9374817 Z M64.7552124,45.8342819 L63.108473,42.5839995 L66.3998698,44.2096944 L64.7552124,45.8342819 Z M69.5419998,56.2587579 L69.5419998,70.8749829 L31.95848,70.8749829 L31.95848,38.8124379 L43.91696,38.8124379 C44.3689245,38.8127543 44.802631,38.6361997 45.1231061,38.3213755 L48.1981301,35.2838762 L50.8152638,44.3373643 C50.8726002,44.5360674 50.9662924,44.7229052 51.0918558,44.8880692 C51.6581727,45.6335222 52.7289858,45.7842897 53.4836479,45.2248836 L58.6762744,41.3780174 L62.7582086,49.4436853 L62.7625328,49.4416287 C62.8422912,49.5980915 62.9471944,49.7450622 63.0793243,49.875738 L69.5419998,56.2587579 Z M66.7027276,48.6827285 L69.283986,46.1329693 L91.851459,68.4248917 L89.2702005,70.9746508 L66.7027276,48.6827285 Z M98.0509956,77.0985341 C97.3381346,77.8026961 96.1824381,77.8026961 95.4697372,77.0985341 L91.6861764,73.3611444 L94.2674348,70.8113852 L98.0508354,74.5486168 C98.7638566,75.2527787 98.7638566,76.3943722 98.0509956,77.0985341 Z" id="Shape" fill="#000000" fill-rule="nonzero"></path>
                    <rect id="Rectangle-Copy-5" x="0" y="0" width="104" height="104"></rect>
                </g>
            </g>
        </g>
    </g>
</svg>