<?xml version="1.0" encoding="UTF-8"?>
<svg width="98px" height="95px" viewBox="0 0 98 95" version="1.1" xmlns="http://www.w3.org/2000/svg" xmlns:xlink="http://www.w3.org/1999/xlink">
    <!-- Generator: sketchtool 55.2 (78181) - https://sketchapp.com -->
    <title>916F8DC6-4651-40F2-AF1C-C3025345CEB9</title>
    <desc>Created with sketchtool.</desc>
    <g id="escritorio" stroke="none" stroke-width="1" fill="none" fill-rule="evenodd">
        <g id="Desktop-HD" transform="translate(-970.000000, -744.000000)">
            <g id="destacado" transform="translate(135.000000, 681.000000)">
                <g id="icon-3" transform="translate(833.000000, 61.000000)">
                    <circle id="Oval-Copy-5" fill="#E5CC51" cx="21" cy="78" r="19"></circle>
                    <path d="M99.8528811,20.8893432 C99.5774954,19.8909195 98.9056325,19.0397522 97.9863781,18.5237202 C97.0664728,18.005149 95.9727425,17.8648747 94.9467193,18.1333637 C93.921998,18.4024875 93.0489669,19.0568899 92.5196796,19.9531226 L91.8530249,21.0842041 C91.2195728,20.7293923 90.4103425,20.9382171 90.0399063,21.5526317 L86.6532485,27.1807456 L85.493113,26.5307864 C85.1858269,26.3575063 84.8199481,26.3105365 84.4775063,26.4006676 C84.1344136,26.4914335 83.8427522,26.7110485 83.666323,27.0119087 C83.3050014,27.6333053 83.5250496,28.4229041 84.1598037,28.7796201 L85.3199392,29.4295793 L73.9868095,48.5773535 L71.1867297,55.8703532 L69.8534203,58.3007184 C69.0728353,59.6247565 69.1561672,61.2706006 70.0669581,62.5127591 L67.0670121,66.1002294 L66.2271833,64.0468914 C65.848284,63.1316167 64.9713466,62.5045076 63.9629012,62.4277058 C62.9538047,62.3502693 61.9870252,62.8364692 61.4668522,63.6825587 L60.9870432,64.4753312 L60.5339263,59.2756572 C60.4297615,58.0455586 59.4525656,57.0566557 58.1960777,56.90813 C56.9389389,56.7602389 55.748856,57.4946166 55.3471706,58.6650511 L52.0672817,68.2582972 C51.8381191,68.9368192 52.2131124,69.6680234 52.9071103,69.8965247 C53.0373162,69.9555541 53.1772877,69.9910988 53.3205143,70 C53.8934207,70.0018891 54.4038282,69.6458079 54.5874185,69.1164465 L57.853636,59.5232004 L58.3204245,64.8003109 C58.4167769,65.9263146 59.2468401,66.8625352 60.375726,67.1176949 C61.5046121,67.3728548 62.6725597,66.8879242 63.2669502,65.9186979 L63.7604308,65.1252905 L64.5872388,67.1665688 C64.938144,68.0266223 65.7317496,68.6404022 66.6711859,68.7768683 C67.6106221,68.9133342 68.5533135,68.5521753 69.1470528,67.8292227 L72.2537677,63.9948438 C72.5975115,64.0824361 72.9516718,64.1262321 73.3071342,64.1249626 C74.7361451,64.135753 76.062944,63.40201 76.7868894,62.2004739 L78.1201987,60.0297117 L83.2001856,54.0112413 L94.6531047,34.6292533 L95.8132402,35.2792126 C96.1224793,35.451858 96.3477358,35.7368498 96.4395309,36.0726199 C96.5319773,36.405851 96.483801,36.7612974 96.3067208,37.0602532 L90.9734834,46.068917 C90.7723151,46.3646992 90.703957,46.7277623 90.7846846,47.0743227 C90.8654125,47.4202482 91.0874137,47.7192042 91.399908,47.9013703 C91.7071942,48.0752853 92.0730729,48.1222551 92.4155148,48.0321239 C92.7586074,47.9413581 93.0502689,47.7217431 93.226698,47.4208829 L98.5599355,38.4122193 C99.0918269,37.5153517 99.2357047,36.4490123 98.959668,35.4486844 C98.6836313,34.4496259 98.0124193,33.5984586 97.093165,33.0824265 L95.9330297,32.4324673 L99.2663031,26.8037186 C99.6302288,26.1861304 99.4160399,25.3978008 98.7864939,25.036007 L99.4531486,23.9049257 C99.9993628,22.9940941 100.143891,21.9061741 99.8528811,20.8893432 L99.8528811,20.8893432 Z M94.8262786,21.2530411 C95.0027078,20.9521811 95.2956713,20.7319312 95.6400662,20.6424349 C95.9825078,20.5599206 96.3444807,20.6062556 96.6530688,20.7725537 C96.9623081,20.9445644 97.1875643,21.2301911 97.2800107,21.5653263 C97.3646445,21.8991921 97.3171193,22.2520996 97.1465496,22.5529596 L96.4798949,23.6840411 L94.1596239,22.3841226 L94.8262786,21.2530411 Z M76.6534283,57.5472989 L75.9867736,57.1702717 L74.0135017,56.0518849 L75.9066968,51.1124484 L80.1064912,53.4780716 L76.6534283,57.5472989 Z M72.6535002,61.3036063 C72.0903593,60.9208666 71.9171852,60.1845846 72.2537677,59.6006369 L72.9204224,58.4701902 L75.2400422,59.7701087 L74.5733875,60.887861 C74.386542,61.2039544 74.0727455,61.4286472 73.7075177,61.5079881 C73.3422898,61.5866941 72.9601353,61.5130659 72.6535002,61.3036063 Z M81.6266462,51.3466623 L77.0134478,48.7468253 L87.6799227,30.7294978 L92.2931211,33.3293348 L81.6266462,51.3466623 Z M93.6264305,31.0805012 L89.0132321,28.4806641 L91.6798508,23.982997 L96.2930492,26.582834 L93.6264305,31.0805012 Z" id="Shape" fill="#000000" fill-rule="nonzero"></path>
                    <path d="M40.8031301,60.2916593 L36.0922988,64.5739334 L33.2706091,62.0021997 C32.7513713,61.5319196 31.9130525,61.5319196 31.3938149,62.0021997 C31.1416693,62.2302324 31,62.5400012 31,62.8633929 C31,63.1867845 31.1416693,63.4971457 31.3938149,63.724586 L34.2155047,66.2963197 C34.7145967,66.7476464 35.3891508,67.0005553 36.0922988,67 C36.7993459,67.0035167 37.4797489,66.750608 37.9820902,66.2963197 L42.6799243,62.0021997 C43.1322265,61.520666 43.1016832,60.8033999 42.6103893,60.3556269 C42.1184457,59.9072616 41.3314658,59.8794238 40.8031301,60.2916593 Z" id="Path" fill="#000000" fill-rule="nonzero"></path>
                    <path d="M26,63.9998235 C26,70.0755759 30.9249769,75 37,75 C43.0750231,75 48,70.0755759 48,63.9998235 C48,63.2851408 47.4205538,62.7056851 46.7058824,62.7056851 C45.9912109,62.7056851 45.4117647,63.2851408 45.4117647,63.9998235 C45.4117647,68.6455782 41.6456801,72.4117232 37,72.4117232 C32.3543199,72.4117232 28.5882353,68.6455782 28.5882353,63.9998235 C28.5882353,59.3540689 32.3543199,55.5879239 37,55.5879239 C38.8211166,55.5828687 40.5935777,56.1736985 42.0469325,57.270683 C42.618796,57.6997455 43.4301471,57.5834753 43.8585709,57.0116027 C44.2876263,56.43973 44.17199,55.6289978 43.6001263,55.1999352 C40.2668887,52.7001249 35.8069853,52.2982343 32.0807101,54.1610858 C28.3538028,56.0245693 26,59.8336837 26,63.9998235 Z" id="Path" fill="#000000" fill-rule="nonzero"></path>
                    <path d="M67.6785714,13.3333333 C68.4083252,13.3333333 69,12.8115236 69,12.1666667 C69,11.5223797 68.4083252,11 67.6785714,11 L33.3214286,11 C32.5916748,11 32,11.5223797 32,12.1666667 L32,16.8333333 C32,17.4781902 32.5916748,18 33.3214286,18 L67.6785714,18 C68.4083252,18 69,17.4781902 69,16.8333333 C69,16.1890463 68.4083252,15.6666667 67.6785714,15.6666667 L34.6428571,15.6666667 L34.6428571,13.3333333 L67.6785714,13.3333333 Z" id="Path" fill="#000000" fill-rule="nonzero"></path>
                    <path d="M37.3636364,21 C36.6105735,21 36,21.447754 36,22 C36,22.5527345 36.6105735,23 37.3636364,23 L64.6363636,23 C65.3894265,23 66,22.5527345 66,22 C66,21.447754 65.3894265,21 64.6363636,21 L37.3636364,21 Z" id="Path" fill="#000000" fill-rule="nonzero"></path>
                    <path d="M71.6666667,31 L42.3333333,31 C41.5970052,31 41,31.447754 41,32 C41,32.5527345 41.5970052,33 42.3333333,33 L71.6666667,33 C72.4029948,33 73,32.5527345 73,32 C73,31.447754 72.4029948,31 71.6666667,31 Z" id="Path" fill="#000000" fill-rule="nonzero"></path>
                    <path d="M58,39 C58,38.447754 57.3894265,38 56.6363636,38 L29.3636364,38 C28.6105735,38 28,38.447754 28,39 C28,39.5527345 28.6105735,40 29.3636364,40 L56.6363636,40 C57.3894265,40 58,39.5527345 58,39 Z" id="Path" fill="#000000" fill-rule="nonzero"></path>
                    <path d="M71.6666667,38 L62.3333333,38 C61.5970052,38 61,38.447754 61,39 C61,39.5527345 61.5970052,40 62.3333333,40 L71.6666667,40 C72.4029948,40 73,39.5527345 73,39 C73,38.447754 72.4029948,38 71.6666667,38 Z" id="Path" fill="#000000" fill-rule="nonzero"></path>
                    <path d="M44.6666667,46 C45.4029948,46 46,45.5527345 46,45 C46,44.447754 45.4029948,44 44.6666667,44 L31.3333333,44 C30.5970052,44 30,44.447754 30,45 C30,45.5527345 30.5970052,46 31.3333333,46 L44.6666667,46 Z" id="Path" fill="#000000" fill-rule="nonzero"></path>
                    <path d="M49.3333333,46 L58.6666667,46 C59.4029948,46 60,45.5527345 60,45 C60,44.447754 59.4029948,44 58.6666667,44 L49.3333333,44 C48.5970052,44 48,44.447754 48,45 C48,45.5527345 48.5970052,46 49.3333333,46 Z" id="Path" fill="#000000" fill-rule="nonzero"></path>
                    <path d="M80.6521739,62.5666666 C79.9078422,62.5666666 79.3043478,63.1562094 79.3043478,63.8833333 L79.3043478,77.05 C79.3043478,77.7777671 78.7008535,78.3666667 77.9565217,78.3666667 L24.0434783,78.3666667 C23.2991465,78.3666667 22.6956522,77.7777671 22.6956522,77.05 L22.6956522,5.94999992 C22.6956522,5.22287602 23.2991465,4.63333325 24.0434783,4.63333325 L77.9565217,4.63333325 C78.7008535,4.63333325 79.3043478,5.22287602 79.3043478,5.94999992 L79.3043478,30.6773601 C79.3043478,31.4044841 79.9078422,31.9940267 80.6521739,31.9940267 C81.3965056,31.9940267 82,31.4044841 82,30.6773601 L82,5.94999992 C82,3.76862789 80.1895168,2 77.9565217,2 L24.0434783,2 C21.8104832,2 20,3.76862789 20,5.94999992 L20,77.05 C20,79.2320151 21.8104832,81 24.0434783,81 L77.9565217,81 C80.1895168,81 82,79.2320151 82,77.05 L82,63.8833333 C82,63.1562094 81.3965056,62.5666666 80.6521739,62.5666666 Z" id="Path" fill="#000000" fill-rule="nonzero"></path>
                    <rect id="Rectangle-Copy-4" x="0" y="0" width="104" height="104"></rect>
                </g>
            </g>
        </g>
    </g>
</svg>