<?xml version="1.0" encoding="UTF-8"?>
<svg width="77px" height="91px" viewBox="0 0 77 91" version="1.1" xmlns="http://www.w3.org/2000/svg" xmlns:xlink="http://www.w3.org/1999/xlink">
    <!-- Generator: sketchtool 55.2 (78181) - https://sketchapp.com -->
    <title>8D62DF1E-CE1A-4EB2-94DB-7D51117F3CAE</title>
    <desc>Created with sketchtool.</desc>
    <g id="escritorio" stroke="none" stroke-width="1" fill="none" fill-rule="evenodd">
        <g id="Desktop-HD" transform="translate(-775.000000, -749.000000)">
            <g id="destacado" transform="translate(135.000000, 681.000000)">
                <g id="icon-2" transform="translate(634.000000, 61.000000)">
                    <rect id="Rectangle-Copy-3" x="0" y="0" width="104" height="104"></rect>
                    <circle id="Oval-Copy-8" fill="#E5CC51" cx="25" cy="79" r="19"></circle>
                    <path d="M69.7142857,18.3333333 C70.4243164,18.3333333 71,17.8115236 71,17.1666667 C71,16.5223797 70.4243164,16 69.7142857,16 L36.2857143,16 C35.5756836,16 35,16.5223797 35,17.1666667 L35,21.8333333 C35,22.4781902 35.5756836,23 36.2857143,23 L69.7142857,23 C70.4243164,23 71,22.4781902 71,21.8333333 C71,21.1890463 70.4243164,20.6666667 69.7142857,20.6666667 L37.5714286,20.6666667 L37.5714286,18.3333333 L69.7142857,18.3333333 Z" id="Path" fill="#000000" fill-rule="nonzero"></path>
                    <path d="M39.3181818,25 C38.590221,25 38,25.447754 38,26 C38,26.5527345 38.590221,27 39.3181818,27 L65.6818182,27 C66.409779,27 67,26.5527345 67,26 C67,25.447754 66.409779,25 65.6818182,25 L39.3181818,25 Z" id="Path" fill="#000000" fill-rule="nonzero"></path>
                    <path d="M72.7083333,35 L44.2916667,35 C43.5783488,35 43,35.447754 43,36 C43,36.5527345 43.5783488,37 44.2916667,37 L72.7083333,37 C73.4216512,37 74,36.5527345 74,36 C74,35.447754 73.4216512,35 72.7083333,35 Z" id="Path" fill="#000000" fill-rule="nonzero"></path>
                    <path d="M60,43 C60,42.447754 59.409779,42 58.6818182,42 L32.3181818,42 C31.590221,42 31,42.447754 31,43 C31,43.5527345 31.590221,44 32.3181818,44 L58.6818182,44 C59.409779,44 60,43.5527345 60,43 Z" id="Path" fill="#000000" fill-rule="nonzero"></path>
                    <path d="M60,60 C60,59.447754 59.409779,59 58.6818182,59 L32.3181818,59 C31.590221,59 31,59.447754 31,60 C31,60.5527345 31.590221,61 32.3181818,61 L58.6818182,61 C59.409779,61 60,60.5527345 60,60 Z" id="Path-Copy" fill="#000000" fill-rule="nonzero"></path>
                    <path d="M73.6666667,42 L64.3333333,42 C63.5970052,42 63,42.447754 63,43 C63,43.5527345 63.5970052,44 64.3333333,44 L73.6666667,44 C74.4029948,44 75,43.5527345 75,43 C75,42.447754 74.4029948,42 73.6666667,42 Z" id="Path" fill="#000000" fill-rule="nonzero"></path>
                    <path d="M73.6666667,59 L64.3333333,59 C63.5970052,59 63,59.447754 63,60 C63,60.5527345 63.5970052,61 64.3333333,61 L73.6666667,61 C74.4029948,61 75,60.5527345 75,60 C75,59.447754 74.4029948,59 73.6666667,59 Z" id="Path-Copy-2" fill="#000000" fill-rule="nonzero"></path>
                    <path d="M46.6666667,51 C47.4029948,51 48,50.5527345 48,50 C48,49.447754 47.4029948,49 46.6666667,49 L33.3333333,49 C32.5970052,49 32,49.447754 32,50 C32,50.5527345 32.5970052,51 33.3333333,51 L46.6666667,51 Z" id="Path" fill="#000000" fill-rule="nonzero"></path>
                    <path d="M46.6666667,68 C47.4029948,68 48,67.5527345 48,67 C48,66.447754 47.4029948,66 46.6666667,66 L33.3333333,66 C32.5970052,66 32,66.447754 32,67 C32,67.5527345 32.5970052,68 33.3333333,68 L46.6666667,68 Z" id="Path-Copy-3" fill="#000000" fill-rule="nonzero"></path>
                    <path d="M52.3333333,51 L61.6666667,51 C62.4029948,51 63,50.5527345 63,50 C63,49.447754 62.4029948,49 61.6666667,49 L52.3333333,49 C51.5970052,49 51,49.447754 51,50 C51,50.5527345 51.5970052,51 52.3333333,51 Z" id="Path" fill="#000000" fill-rule="nonzero"></path>
                    <path d="M52.3333333,68 L61.6666667,68 C62.4029948,68 63,67.5527345 63,67 C63,66.447754 62.4029948,66 61.6666667,66 L52.3333333,66 C51.5970052,66 51,66.447754 51,67 C51,67.5527345 51.5970052,68 52.3333333,68 Z" id="Path-Copy-4" fill="#000000" fill-rule="nonzero"></path>
                    <path d="M81.6956522,66.8 C80.9753311,66.8 80.3913043,67.3820802 80.3913043,68.1 L80.3913043,81.1 C80.3913043,81.8185548 79.8072776,82.4 79.0869565,82.4 L26.9130435,82.4 C26.1927224,82.4 25.6086957,81.8185548 25.6086957,81.1 L25.6086957,10.8999999 C25.6086957,10.1820801 26.1927224,9.59999992 26.9130435,9.59999992 L79.0869565,9.59999992 C79.8072776,9.59999992 80.3913043,10.1820801 80.3913043,10.8999999 L80.3913043,59.3143555 C80.3913043,60.0322755 80.9753311,60.6143555 81.6956522,60.6143555 C82.4159732,60.6143555 83,60.0322755 83,59.3143555 L83,10.8999999 C83,8.7462402 81.2479195,7 79.0869565,7 L26.9130435,7 C24.7520805,7 23,8.7462402 23,10.8999999 L23,81.1 C23,83.2543946 24.7520805,85 26.9130435,85 L79.0869565,85 C81.2479195,85 83,83.2543946 83,81.1 L83,68.1 C83,67.3820802 82.4159732,66.8 81.6956522,66.8 Z" id="Path" fill="#000000" fill-rule="nonzero"></path>
                </g>
            </g>
        </g>
    </g>
</svg>