<?xml version="1.0" encoding="UTF-8"?>
<svg width="124px" height="120px" viewBox="0 0 124 120" version="1.1" xmlns="http://www.w3.org/2000/svg" xmlns:xlink="http://www.w3.org/1999/xlink">
    <!-- Generator: sketchtool 55.2 (78181) - https://sketchapp.com -->
    <title>AB68D4E1-DE56-4030-969F-E74FF2E98286</title>
    <desc>Created with sketchtool.</desc>
    <defs>
        <polygon id="path-1" points="8.4e-05 0.053664 104.94582 0.053664 104.94582 103.999792 8.4e-05 103.999792"></polygon>
    </defs>
    <g id="escritorio" stroke="none" stroke-width="1" fill="none" fill-rule="evenodd">
        <g id="Desktop-HD" transform="translate(-235.000000, -1561.000000)">
            <g id="registro" transform="translate(0.000000, 1406.000000)">
                <g id="oficinas" transform="translate(235.000000, 150.000000)">
                    <g id="icon" transform="translate(0.000000, 5.000000)">
                        <ellipse id="Oval-Copy-5" fill="#E5CC51" cx="23.5" cy="97" rx="23.5" ry="23"></ellipse>
                        <g id="Group-34" transform="translate(19.000000, 0.000000)">
                            <path d="M38.125,23.5238095 C39.1604764,23.5238095 40,22.6666093 40,21.6093304 L40,13.0573363 C40,12.0000573 39.1604764,11.1428571 38.125,11.1428571 C37.0895236,11.1428571 36.25,12.0000573 36.25,13.0573363 L36.25,21.6093304 C36.25,22.6666093 37.0895236,23.5238095 38.125,23.5238095" id="Fill-1" fill="#000000"></path>
                            <path d="M53.125,23.5238095 C54.1604764,23.5238095 55,22.6666093 55,21.6093304 L55,13.0573363 C55,12.0000573 54.1604764,11.1428571 53.125,11.1428571 C52.0895236,11.1428571 51.25,12.0000573 51.25,13.0573363 L51.25,21.6093304 C51.25,22.6666093 52.0895236,23.5238095 53.125,23.5238095" id="Fill-3" fill="#000000"></path>
                            <path d="M66.875,23.5238095 C67.9104764,23.5238095 68.75,22.6666093 68.75,21.6093304 L68.75,13.0573363 C68.75,12.0000573 67.9104764,11.1428571 66.875,11.1428571 C65.8395236,11.1428571 65,12.0000573 65,13.0573363 L65,21.6093304 C65,22.6666093 65.8395236,23.5238095 66.875,23.5238095" id="Fill-5" fill="#000000"></path>
                            <path d="M36.25,42.6569494 C36.25,43.7142284 37.0895236,44.5714286 38.125,44.5714286 C39.1604764,44.5714286 40,43.7142284 40,42.6569494 L40,34.1049553 C40,33.0476764 39.1604764,32.1904762 38.125,32.1904762 C37.0895236,32.1904762 36.25,33.0476764 36.25,34.1049553 L36.25,42.6569494 Z" id="Fill-7" fill="#000000"></path>
                            <path d="M51.25,42.6569494 C51.25,43.7142284 52.0898217,44.5714286 53.1248079,44.5714286 C54.1601783,44.5714286 55,43.7142284 55,42.6569494 L55,34.1049553 C55,33.0476764 54.1601783,32.1904762 53.1248079,32.1904762 C52.0898217,32.1904762 51.25,33.0476764 51.25,34.1049553 L51.25,42.6569494 Z" id="Fill-9" fill="#000000"></path>
                            <path d="M65,42.6569494 C65,43.7142284 65.8398217,44.5714286 66.8748079,44.5714286 C67.9101783,44.5714286 68.75,43.7142284 68.75,42.6569494 L68.75,34.1049553 C68.75,33.0476764 67.9101783,32.1904762 66.8748079,32.1904762 C65.8398217,32.1904762 65,33.0476764 65,34.1049553 L65,42.6569494 Z" id="Fill-11" fill="#000000"></path>
                            <path d="M36.25,63.7045685 C36.25,64.7618474 37.0895236,65.6190476 38.125,65.6190476 C39.1604764,65.6190476 40,64.7618474 40,63.7045685 L40,55.1525744 C40,54.0952954 39.1604764,53.2380952 38.125,53.2380952 C37.0895236,53.2380952 36.25,54.0952954 36.25,55.1525744 L36.25,63.7045685 Z" id="Fill-13" fill="#000000"></path>
                            <path d="M51.25,63.7045685 C51.25,64.7618474 52.0898217,65.6190476 53.1248079,65.6190476 C54.1601783,65.6190476 55,64.7618474 55,63.7045685 L55,55.1525744 C55,54.0952954 54.1601783,53.2380952 53.1248079,53.2380952 C52.0898217,53.2380952 51.25,54.0952954 51.25,55.1525744 L51.25,63.7045685 Z" id="Fill-15" fill="#000000"></path>
                            <path d="M65,63.7045685 C65,64.7618474 65.8398217,65.6190476 66.8748079,65.6190476 C67.9101783,65.6190476 68.75,64.7618474 68.75,63.7045685 L68.75,55.1525744 C68.75,54.0952954 67.9101783,53.2380952 66.8748079,53.2380952 C65.8398217,53.2380952 65,54.0952954 65,55.1525744 L65,63.7045685 Z" id="Fill-17" fill="#000000"></path>
                            <path d="M14.375,53.2380952 C13.3395236,53.2380952 12.5,54.0956606 12.5,55.1525137 L12.5,63.7042368 C12.5,64.7614823 13.3395236,65.6190476 14.375,65.6190476 C15.4104764,65.6190476 16.25,64.7614823 16.25,63.7042368 L16.25,55.1525137 C16.25,54.0956606 15.4104764,53.2380952 14.375,53.2380952" id="Fill-19" fill="#000000"></path>
                            <path d="M14.375,74.2857143 C13.3395236,74.2857143 12.5,75.1432796 12.5,76.2001328 L12.5,84.7518559 C12.5,85.8091013 13.3395236,86.6666667 14.375,86.6666667 C15.4104764,86.6666667 16.25,85.8091013 16.25,84.7518559 L16.25,76.2001328 C16.25,75.1432796 15.4104764,74.2857143 14.375,74.2857143" id="Fill-21" fill="#000000"></path>
                            <path d="M36.25,84.7521875 C36.25,85.8094665 37.0895236,86.6666667 38.125,86.6666667 C39.1604764,86.6666667 40,85.8094665 40,84.7521875 L40,76.2001934 C40,75.1429145 39.1604764,74.2857143 38.125,74.2857143 C37.0895236,74.2857143 36.25,75.1429145 36.25,76.2001934 L36.25,84.7521875 Z" id="Fill-23" fill="#000000"></path>
                            <path d="M51.25,84.7521875 C51.25,85.8094665 52.0898217,86.6666667 53.1248079,86.6666667 C54.1601783,86.6666667 55,85.8094665 55,84.7521875 L55,76.2001934 C55,75.1429145 54.1601783,74.2857143 53.1248079,74.2857143 C52.0898217,74.2857143 51.25,75.1429145 51.25,76.2001934 L51.25,84.7521875 Z" id="Fill-25" fill="#000000"></path>
                            <path d="M89.375,54.4761905 C89.8679559,54.4761905 90.3516906,54.2775574 90.7005635,53.9320425 C91.0490523,53.5865275 91.25,53.107449 91.25,52.6192379 C91.25,52.1287436 91.0494365,51.6515677 90.7005635,51.3060528 C90.3516906,50.9609183 89.869877,50.7619048 89.375,50.7619048 C88.8816598,50.7619048 88.3979252,50.9609183 88.0490523,51.3060528 C87.7005635,51.6515677 87.5,52.1306463 87.5,52.6192379 C87.5,53.107449 87.7001793,53.5865275 88.0490523,53.9320425 C88.3983094,54.2775574 88.8816598,54.4761905 89.375,54.4761905" id="Fill-27" fill="#000000"></path>
                            <g id="Group-31">
                                <mask id="mask-2" fill="white">
                                    <use xlink:href="#path-1"></use>
                                </mask>
                                <g id="Clip-30"></g>
                                <path d="M77.889504,99.939632 L55.139784,99.939632 C54.737844,99.231184 54.522804,98.426224 54.522804,97.60504 C54.522804,94.97384 56.683704,92.833936 59.339364,92.833936 C60.162144,92.833936 60.974004,93.043184 61.688004,93.439632 C62.221824,93.735824 62.861484,93.780336 63.431844,93.561104 C64.002204,93.341872 64.443624,92.881776 64.635984,92.306032 C65.706564,89.100336 68.717544,86.946288 72.127524,86.946288 C75.261564,86.946288 78.099504,88.785424 79.358244,91.63128 C79.702644,92.410032 80.498544,92.892592 81.357864,92.843088 C81.451944,92.83768 81.546444,92.833936 81.641784,92.833936 C84.297444,92.833936 86.458344,94.97384 86.458344,97.60504 C86.458344,98.426224 86.242884,99.231184 85.841364,99.939632 L77.889504,99.939632 Z M79.939104,81.269552 C81.974424,82.65192 84.347424,83.577104 86.908584,83.903664 L86.908584,90.485616 C85.650264,89.57 84.143304,88.971376 82.506564,88.81496 C81.822804,87.644336 80.950464,86.614736 79.939104,85.754864 L79.939104,81.269552 Z M88.958184,34.04024 C95.513124,34.04024 100.846704,39.322608 100.846704,45.815536 L100.846704,68.202576 C100.846704,74.002864 96.589164,78.833872 91.007784,79.798992 L91.007784,60.18584 C91.007784,59.06472 90.090084,58.15576 88.958184,58.15576 C87.826284,58.15576 86.908584,59.06472 86.908584,60.18584 L86.908584,79.798992 C81.327204,78.833456 77.069664,74.002864 77.069664,68.202576 L77.069664,45.815536 C77.069664,39.322608 82.402824,34.04024 88.958184,34.04024 L88.958184,34.04024 Z M4.099704,99.939632 L25.006884,99.939632 L25.006884,43.906096 L4.099704,43.906096 L4.099704,99.939632 Z M104.945904,68.202576 L104.945904,45.815536 C104.945904,37.083696 97.773984,29.979664 88.958184,29.979664 C85.614564,29.979664 82.508664,31.00344 79.939104,32.74856 L79.939104,4.113616 L82.706484,4.113616 C83.838384,4.113616 84.756084,3.205072 84.756084,2.083952 C84.756084,0.962416 83.838384,0.053456 82.706484,0.053456 L77.889504,0.053456 L27.056484,0.053456 L22.239504,0.053456 C21.107604,0.053456 20.189904,0.962416 20.189904,2.083952 C20.189904,3.205072 21.107604,4.113616 22.239504,4.113616 L25.006464,4.113616 L25.006464,14.738672 C25.006464,15.859792 25.924584,16.768752 27.056484,16.768752 C28.188384,16.768752 29.106084,15.859792 29.106084,14.738672 L29.106084,4.113616 L75.839904,4.113616 L75.839904,36.394384 C75.839904,36.510864 75.852084,36.624432 75.870984,36.735504 C74.046084,39.308464 72.970464,42.438864 72.970464,45.815536 L72.970464,68.202576 C72.970464,71.560112 74.033484,74.674288 75.839904,77.238928 L75.839904,83.471024 C74.660544,83.089968 73.410624,82.885712 72.127524,82.885712 C71.048544,82.885712 69.996444,83.029232 68.990964,83.297552 L68.990964,76.67608 C68.990964,75.55496 68.073264,74.645584 66.941364,74.645584 C65.809464,74.645584 64.891764,75.55496 64.891764,76.67608 L64.891764,85.287696 C63.554484,86.289424 62.427624,87.569872 61.605264,89.063728 C60.868164,88.872368 60.106284,88.77336 59.339364,88.77336 C54.422844,88.77336 50.423184,92.735344 50.423184,97.60504 C50.423184,98.398352 50.532804,99.18376 50.742384,99.939632 L29.106084,99.939632 L29.106084,30.980144 C29.106084,29.859024 28.188384,28.950064 27.056484,28.950064 C25.924584,28.950064 25.006464,29.859024 25.006464,30.980144 L25.006464,39.84552 L2.049684,39.84552 C0.917784,39.84552 8.4e-05,40.75448 8.4e-05,41.8756 L8.4e-05,101.969712 C8.4e-05,103.090832 0.917784,103.999792 2.049684,103.999792 L102.896304,103.999792 C104.028204,103.999792 104.945904,103.090832 104.945904,101.969712 C104.945904,100.848592 104.028204,99.939632 102.896304,99.939632 L91.007784,99.939632 L91.007784,83.903664 C98.858424,82.903184 104.945904,76.246352 104.945904,68.202576 L104.945904,68.202576 Z" id="Fill-29" fill="#000000" mask="url(#mask-2)"></path>
                            </g>
                            <path d="M26.875,24.7619048 C27.3679559,24.7619048 27.8516906,24.5647938 28.2005635,24.2177568 C28.5490523,23.8722418 28.75,23.3931633 28.75,22.9049522 C28.75,22.4163605 28.5494365,21.9391846 28.2005635,21.591767 C27.8516906,21.2466326 27.3679559,21.047619 26.875,21.047619 C26.3816598,21.047619 25.8979252,21.2466326 25.5490523,21.591767 C25.2005635,21.937282 25,22.4163605 25,22.9049522 C25,23.3931633 25.2001793,23.8722418 25.5490523,24.2177568 C25.8979252,24.5647938 26.3816598,24.7619048 26.875,24.7619048" id="Fill-32" fill="#000000"></path>
                        </g>
                    </g>
                </g>
            </g>
        </g>
    </g>
</svg>