<?xml version="1.0" encoding="UTF-8"?>
<svg width="214px" height="37px" viewBox="0 0 214 37" version="1.1" xmlns="http://www.w3.org/2000/svg" xmlns:xlink="http://www.w3.org/1999/xlink">
    <!-- Generator: sketchtool 55.2 (78181) - https://sketchapp.com -->
    <title>348FF658-F5DD-462F-AB86-1173886C5EC0</title>
    <desc>Created with sketchtool.</desc>
    <defs>
        <polygon id="path-1" points="0.0436839286 0.146296296 16.9863089 0.146296296 16.9863089 24.7428395 0.0436839286 24.7428395"></polygon>
        <polygon id="path-3" points="0.149936842 0.146296296 17.7766737 0.146296296 17.7766737 24.7429012 0.149936842 24.7429012"></polygon>
        <polygon id="path-5" points="0 0.247234964 2.91110029 0.247234964 2.91110029 2.95448504 0 2.95448504"></polygon>
        <polygon id="path-7" points="0 0.0111081815 2.91110029 0.0111081815 2.91110029 2.71835504 0 2.71835504"></polygon>
    </defs>
    <g id="escritorio" stroke="none" stroke-width="1" fill="none" fill-rule="evenodd">
        <g id="Desktop-HD" transform="translate(-135.000000, -2748.000000)">
            <g id="footer" transform="translate(0.000000, 2694.000000)">
                <g id="Group-75" transform="translate(135.000000, 54.000000)">
                    <path d="M81.5,22.3798555 C78.4858591,22.3798555 75.8936366,19.6350027 75.8936366,16.5157075 C75.8936366,13.146361 78.4858591,10.6198272 81.5,10.6198272 C84.5141409,10.6198272 87.1060568,13.146361 87.1060568,16.5157075 C87.1060568,19.6350027 84.5141409,22.3798555 81.5,22.3798555 M81.5,8 C76.5568702,8 73,11.9300581 73,16.5157075 C73,21.1632352 76.3756538,25 81.5,25 C86.6240395,25 90,21.1632352 90,16.5157075 C90,11.9300581 86.4434364,8 81.5,8" id="Fill-1" fill="#FFFFFF"></path>
                    <g id="Group-5" transform="translate(92.000000, 0.000000)">
                        <mask id="mask-2" fill="white">
                            <use xlink:href="#path-1"></use>
                        </mask>
                        <g id="Clip-4"></g>
                        <path d="M8.57100536,21.9366667 C5.58689821,21.9366667 3.02050536,19.2669136 3.02050536,16.232963 C3.02050536,12.9558025 5.58689821,10.4983951 8.57100536,10.4983951 C11.5551125,10.4983951 14.1212018,12.9558025 14.1212018,16.232963 C14.1212018,19.2669136 11.5551125,21.9366667 8.57100536,21.9366667 M8.57100536,7.95024691 C6.23138036,7.95024691 4.2068625,8.82524691 2.72968393,10.224321 L2.72968393,1.55611111 C2.7299875,1.54191358 2.73363036,1.52833333 2.73363036,1.51382716 C2.73363036,1.49901235 2.7299875,1.48574074 2.72968393,1.47123457 L2.72968393,1.35549383 L2.71814821,1.35549383 C2.64013036,0.675864198 2.07821964,0.146234568 1.38880893,0.146234568 C0.699094643,0.146234568 0.1374875,0.675864198 0.0594696429,1.35549383 L0.0436839286,1.35549383 L0.0436839286,23.4230864 L0.0485410714,23.4230864 C0.0740410714,24.1558025 0.662058929,24.7428395 1.38880893,24.7428395 C2.11525536,24.7428395 2.70357679,24.1558025 2.72907679,23.4230864 L2.72968393,23.4230864 L2.72968393,23.4178395 C2.7299875,23.4033333 2.73363036,23.3897531 2.73363036,23.3752469 C2.73363036,23.3607407 2.7299875,23.3471605 2.72968393,23.3326543 L2.72968393,22.3147531 C4.18196964,23.6591975 6.18493393,24.4851235 8.57100536,24.4851235 C13.6439875,24.4851235 16.9863089,20.7533333 16.9863089,16.232963 C16.9863089,11.7727778 13.4648804,7.95024691 8.57100536,7.95024691" id="Fill-3" fill="#FFFFFF" mask="url(#mask-2)"></path>
                    </g>
                    <path d="M68.9816024,28.6538402 C68.9889614,28.593083 68.9996934,28.5329491 68.9996934,28.4700109 C68.9996934,27.658358 68.3517911,27 67.5530284,27 C66.7539591,27 66.1060568,27.658358 66.1060568,28.4700109 C66.1060568,28.5329491 66.1167887,28.593083 66.1244544,28.6538402 L66.1057502,28.6538402 C66.1057502,28.6591369 66.1060568,28.6638106 66.1060568,28.6691073 C66.1060568,31.7318897 63.5141409,34.4270136 60.5,34.4270136 C57.4858591,34.4270136 54.8936366,31.7318897 54.8936366,28.6691073 C54.8936366,28.6638106 54.8939432,28.6591369 54.8939432,28.6538402 L54.875239,28.6538402 C54.8832113,28.593083 54.8936366,28.5329491 54.8936366,28.4700109 C54.8936366,27.658358 54.2457343,27 53.4469716,27 C52.6475957,27 52,27.658358 52,28.4700109 C52,28.5329491 52.0107319,28.593083 52.0183976,28.6538402 L52.0003066,28.6538402 C52.0003066,28.6591369 52,28.6638106 52,28.6691073 C52,33.2327465 55.3759605,37 60.5,37 C65.6240395,37 69,33.2327465 69,28.6691073 C69,28.6638106 68.9996934,28.6591369 68.9996934,28.6538402 L68.9816024,28.6538402 Z" id="Fill-6" fill="#FFFFFF"></path>
                    <path d="M195.5,22.2656198 C192.485859,22.2656198 189.893637,19.5425725 189.893637,16.4480575 C189.893637,13.1057924 192.485859,10.5993297 195.5,10.5993297 C198.514141,10.5993297 201.106057,13.1057924 201.106057,16.4480575 C201.106057,19.5425725 198.514141,22.2656198 195.5,22.2656198 M204,16.4480575 C204,11.8988371 200.44313,8 195.5,8 C190.55687,8 187,11.8988371 187,16.4480575 C187,21.0589793 190.375654,24.8652642 195.5,24.8652642 C197.848148,24.8652642 199.82773,24.0640902 201.28482,22.7541943 L201.28482,23.5837006 C201.28482,23.5909411 201.282674,23.5975519 201.282674,23.6051072 C201.282674,23.6123477 201.28482,23.6195882 201.28482,23.6265138 L201.28482,23.6387912 L201.286047,23.6387912 C201.304138,24.3933743 201.902366,25 202.641337,25 C203.380307,25 203.978536,24.3933743 203.996627,23.6387912 L203.997854,23.6387912 L203.997854,23.6265138 C203.997854,23.6195882 204,23.6123477 204,23.6051072 C204,23.5975519 203.997854,23.5909411 203.997854,23.5837006 L203.997854,16.5402948 C203.99816,16.5094441 204,16.4789082 204,16.4480575" id="Fill-8" fill="#FFFFFF"></path>
                    <path d="M164.961364,28.7705613 C164.984975,28.6670251 164.999693,28.5601094 164.999693,28.4498141 C164.999693,27.6491751 164.352086,27 163.553002,27 C162.753919,27 162.106005,27.6491751 162.106005,28.4498141 C162.106005,28.5601094 162.12103,28.6670251 162.144334,28.7705613 L162.105698,28.7705613 C162.105698,28.7757842 162.106005,28.7803926 162.106005,28.7856155 C162.106005,31.8056776 159.514042,34.4632093 156.499847,34.4632093 C153.485651,34.4632093 150.893382,31.8056776 150.893382,28.7856155 C150.893382,28.7803926 150.893689,28.7757842 150.893689,28.7705613 L150.855053,28.7705613 C150.878357,28.6670251 150.893382,28.5601094 150.893382,28.4498141 C150.893382,27.6491751 150.245775,27 149.446384,27 C148.647607,27 148,27.6491751 148,28.4498141 C148,28.5601094 148.014718,28.6670251 148.038329,28.7705613 L148.000307,28.7705613 C148.000307,28.7757842 148,28.7803926 148,28.7856155 C148,33.2852929 151.375408,37 156.499847,37 C161.623979,37 165,33.2852929 165,28.7856155 C165,28.7803926 164.999387,28.7757842 164.999387,28.7705613 L164.961364,28.7705613 Z" id="Fill-10" fill="#FFFFFF"></path>
                    <path d="M66.1060568,16.5157075 C66.1060568,19.6350027 63.5141409,22.3798555 60.5,22.3798555 C57.4858591,22.3798555 54.8936366,19.6350027 54.8936366,16.5157075 C54.8936366,13.1466784 57.4858591,10.6201445 60.5,10.6201445 C63.5141409,10.6201445 66.1060568,13.1466784 66.1060568,16.5157075 L66.1060568,16.5157075 Z M67.7955701,10.6201445 L67.7955701,10.6103074 C68.4486851,10.5582663 68.9644313,9.99945868 68.9644313,9.3102309 C68.9644313,8.62068579 68.4486851,8.06219551 67.7955701,8.00983704 L67.7955701,8 L59.2955701,8 L59.2955701,8.08250425 C54.9896108,8.66193792 52,12.3124335 52,16.5157075 C52,21.1632352 55.3759605,25 60.5,25 C65.6240395,25 69,21.1632352 69,16.5157075 C69,14.2620723 68.1396054,12.1683684 66.6791422,10.6201445 L67.7955701,10.6201445 Z" id="Fill-12" fill="#FFFFFF"></path>
                    <path d="M162.842402,16.4909302 C162.842402,19.6192179 160.298931,22.3719838 157.341127,22.3719838 C154.383323,22.3719838 151.839552,19.6192179 151.839552,16.4909302 C151.839552,13.1125068 154.383323,10.5786892 157.341127,10.5786892 C160.298931,10.5786892 162.842402,13.1125068 162.842402,16.4909302 M166,9.31400812 C166,8.58842359 165.443945,8 164.757602,8 L156.416776,8 C152.053188,8.46462869 149,12.1899324 149,16.4909302 C149,21.1521743 152.31256,25 157.341127,25 C162.369394,25 165.682254,21.1521743 165.682254,16.4909302 C165.682254,14.2311163 164.83764,12.1807035 163.404775,10.6280162 L164.757602,10.6280162 C165.443945,10.6280162 166,10.0399109 166,9.31400812" id="Fill-14" fill="#FFFFFF"></path>
                    <path d="M145,9.38713539 C145,8.62109605 144.328555,8 143.5,8 C142.671445,8 142,8.62109605 142,9.38713539 C142,9.39433559 142.002032,9.40122275 142.002032,9.40842295 L142.002032,23.591577 C142.002032,23.5987773 142,23.6056644 142,23.6128646 C142,23.6203779 142.002032,23.627265 142.002032,23.6344652 L142.002032,23.6466743 L142.003386,23.6466743 C142.023363,24.3967479 142.683973,25 143.5,25 C144.316027,25 144.976637,24.3967479 144.996275,23.6466743 L144.99763,23.6466743 L144.99763,23.6344652 C144.997968,23.627265 145,23.6203779 145,23.6128646 C145,23.6056644 144.997968,23.5987773 144.99763,23.591577 L144.99763,9.40842295 C144.997968,9.40122275 145,9.39433559 145,9.38713539" id="Fill-16" fill="#FFFFFF"></path>
                    <path d="M172,9.39489278 C172,8.62456946 171.328631,8 170.499831,8 C169.671707,8 169,8.62456946 169,9.39489278 C169,9.40213325 169.00237,9.40905892 169.00237,9.4162994 L169.00237,23.5837006 C169.00237,23.5912559 169,23.5978667 169,23.605422 C169,23.6126625 169.00237,23.619903 169.00237,23.6268286 L169.00237,23.639106 L169.003724,23.639106 C169.023361,24.3936891 169.683896,25 170.499831,25 C171.315766,25 171.976639,24.3936891 171.996276,23.639106 L171.99763,23.639106 L171.99763,23.6268286 C171.99763,23.619903 172,23.6126625 172,23.605422 C172,23.5978667 171.99763,23.5912559 171.99763,23.5837006 L171.99763,9.4162994 C171.99763,9.40905892 172,9.40213325 172,9.39489278" id="Fill-18" fill="#FFFFFF"></path>
                    <g id="Group-22" transform="translate(120.000000, 0.000000)">
                        <mask id="mask-4" fill="white">
                            <use xlink:href="#path-3"></use>
                        </mask>
                        <g id="Clip-21"></g>
                        <path d="M8.90393684,22.0617284 C5.79972632,22.0617284 3.13035789,19.3916667 3.13035789,16.357716 C3.13035789,13.0808642 5.79972632,10.6234568 8.90393684,10.6234568 C12.0084632,10.6234568 14.6778316,13.0808642 14.6778316,16.357716 C14.6778316,19.3916667 12.0084632,22.0617284 8.90393684,22.0617284 M17.7766737,1.51388889 C17.7766737,0.758641975 17.1501474,0.146296296 16.3774105,0.146296296 C15.6049895,0.146296296 14.9781474,0.758641975 14.9781474,1.51388889 C14.9781474,1.52098765 14.9803579,1.52777778 14.9806737,1.53487654 L14.9806737,10.3493827 C13.4437263,8.95030864 11.3377263,8.07530864 8.90393684,8.07530864 C3.81309474,8.07530864 0.149936842,11.8975309 0.149936842,16.357716 C0.149936842,20.8783951 3.62677895,24.6101852 8.90393684,24.6101852 C11.3860421,24.6101852 13.4696211,23.7842593 14.9806737,22.4395062 L14.9806737,23.3540123 C14.9803579,23.3614198 14.9781474,23.3679012 14.9781474,23.3753086 C14.9781474,23.3824074 14.9803579,23.3895062 14.9806737,23.3966049 L14.9806737,23.533642 L14.9945684,23.533642 C15.0757263,24.2132716 15.6602526,24.7429012 16.3774105,24.7429012 C17.0945684,24.7429012 17.6790947,24.2132716 17.7602526,23.533642 L17.7744632,23.533642 L17.7744632,23.3962963 C17.7744632,23.3891975 17.7766737,23.3824074 17.7766737,23.3753086 C17.7766737,23.3679012 17.7744632,23.3614198 17.7744632,23.3540123 L17.7744632,1.53487654 C17.7744632,1.52777778 17.7766737,1.52098765 17.7766737,1.51388889" id="Fill-20" fill="#FFFFFF" mask="url(#mask-4)"></path>
                    </g>
                    <path d="M184.804602,22.46928 L184.804602,22.4597429 L184.705986,22.4597429 C184.704722,22.4597429 184.703774,22.4591276 184.702194,22.4591276 C184.700929,22.4591276 184.699981,22.4597429 184.698401,22.4597429 L183.530817,22.4597429 C182.443201,22.4597429 182.16379,22.1570163 182.16379,21.3100588 L182.16379,11.1318019 L184.609583,11.1318019 C184.625071,11.1324172 184.639927,11.1364167 184.655414,11.1364167 C184.671534,11.1364167 184.686074,11.1324172 184.701877,11.1318019 L184.742651,11.1318019 L184.742651,11.1278025 C185.381756,11.083501 185.888109,10.5703426 185.888109,9.93689352 C185.888109,9.30313674 185.386497,8.78813244 184.747076,8.74413865 L184.724003,8.74290805 L184.71136,8.74290805 C184.692711,8.7419851 184.675327,8.7432157 184.656047,8.7432157 C184.637082,8.7432157 184.61875,8.7419851 184.600101,8.74290805 L182.16379,8.74290805 L182.16379,2.39334196 C182.16379,2.3828819 182.166635,2.37334478 182.166635,2.36319237 C182.166635,1.61006781 181.539857,1 180.76642,1 C180.003414,1 179.385486,1.59437772 179.36905,2.33335042 L179.367153,2.33335042 L179.367153,2.35088641 C179.367153,2.3551935 179.365889,2.35888529 179.365889,2.36319237 C179.365889,2.36688416 179.367153,2.37088359 179.367153,2.37519068 L179.367153,8.74290805 L177.288008,8.74290805 C177.269044,8.7419851 177.251659,8.73737037 177.232379,8.73737037 C177.213098,8.73737037 177.195398,8.7419851 177.176433,8.74290805 L177.130286,8.74290805 L177.130286,8.74721514 C176.498135,8.79859251 176,9.30836677 176,9.93689352 C176,10.5654203 176.498135,11.0748869 177.130286,11.1262642 L177.130286,11.1318019 L177.185916,11.1318019 C177.201719,11.1324172 177.216259,11.1364167 177.232379,11.1364167 C177.248183,11.1364167 177.263038,11.1324172 177.27821,11.1318019 L179.367153,11.1318019 L179.367153,21.6124777 C179.367153,24.0321365 180.23731,25 183.095581,25 C183.665466,25 184.235034,25 184.639295,24.9796952 C184.660472,24.9806181 184.680384,24.9858481 184.702194,24.9858481 C185.419053,24.9858481 186,24.4203894 186,23.722334 C186,23.059043 185.472786,22.520965 184.804602,22.46928" id="Fill-23" fill="#FFFFFF"></path>
                    <path d="M212.843587,22.482364 C212.842461,22.482364 212.841616,22.4829737 212.840208,22.4829737 L212.096297,22.4829737 C211.293538,22.4829737 210.49106,21.8836672 210.49106,20.1156215 L210.49106,2.39248835 C210.491342,2.37816108 210.494721,2.36505316 210.494721,2.35072589 C210.494721,2.33609379 210.491342,2.32298586 210.49106,2.3086586 L210.49106,2.26811548 L210.487118,2.26811548 C210.447135,1.5615069 209.910179,1 209.247642,1 C208.584542,1 208.047586,1.5615069 208.007602,2.26811548 L208,2.26811548 L208,20.3253483 C208,23.5916602 209.522174,25 211.819513,25 L212.843587,25 L212.843587,24.9859776 C213.482472,24.9859776 214,24.42569 214,23.7340184 C214,23.0429564 213.482472,22.482364 212.843587,22.482364" id="Fill-25" fill="#FFFFFF"></path>
                    <path d="M19.8324433,27 C20.4804249,26.9968832 21.0036763,27.423358 21,27.9522077 C20.9965928,28.4810573 20.4681059,28.9119718 19.8201242,28.9148446 L1.16786163,29 C0.519264028,29.0031168 -0.00337135989,28.576642 0,28.0480535 C0.00309613755,27.5192039 0.531583071,27.0882893 1.17987269,27.0851554 L19.8324433,27 Z" id="Fill-27" fill="#FFFFFF"></path>
                    <path d="M33.50815,27 C34.3362326,26.9953705 35.0044538,27.6631714 35,28.4915237 C34.9955015,29.319876 34.3208859,29.9953222 33.4924836,30 C32.6637615,30.0046295 31.9961798,29.3364962 32,28.5084763 C32.0048123,27.680124 32.6794279,27.0050102 33.50815,27" id="Fill-29" fill="#FFFFFF"></path>
                    <path d="M19.8324433,7 C20.4804249,6.99714203 21.0036763,7.42356173 21,7.95208191 C20.9965928,8.48086322 20.4681059,8.91198319 19.8201242,8.91485558 L1.16786163,9 C0.519264028,9.00311636 -0.00337135989,8.57669667 0,8.04817649 C0.00309613755,7.51913405 0.531583071,7.08827521 1.17987269,7.08514169 L19.8324433,7 Z" id="Fill-31" fill="#FFFFFF"></path>
                    <path d="M33.50815,7 C34.3362326,6.99537051 35.0044538,7.66317212 35,8.49152533 C34.9955015,9.31987855 34.3208859,9.99532548 33.4924836,10 C32.6637615,10.0043004 31.9961798,9.3364988 32,8.50847799 C32.0048123,7.67979237 32.6794279,7.00467785 33.50815,7" id="Fill-33" fill="#FFFFFF"></path>
                    <path d="M14.2234526,36 C13.5440446,36.0031119 12.9962758,35.5775651 13,35.0492821 C13.0034504,34.5215206 13.5565222,34.0910195 14.2356183,34.0878905 L33.7762413,34 C34.4553373,33.9968881 35.0031062,34.4224349 35,34.9507179 C34.9965554,35.4784794 34.4431716,35.9089805 33.7637636,35.9118488 L14.2234526,36 Z" id="Fill-35" fill="#FFFFFF"></path>
                    <path d="M6.21280831,36 C5.53979043,36.0029596 4.99661524,35.5619164 5,35.0140602 C5.00341652,34.4667448 5.5521564,34.0202933 6.22517428,34.0170484 L9.78750084,34 C10.4602096,33.9973082 11.0033848,34.4386218 11,34.9859372 C10.9965835,35.5335231 10.4481527,35.9799745 9.77513487,35.9832195 L6.21280831,36 Z" id="Fill-37" fill="#FFFFFF"></path>
                    <path d="M14.2234526,3 C13.5440446,3.00311188 12.9962758,2.57756506 13,2.04928208 C13.0034504,1.52152059 13.5565222,1.0910195 14.2356183,1.08789048 L33.7762413,1 C34.4553373,0.996888125 35.0031062,1.42243494 35,1.95071792 C34.9965554,2.47847941 34.4431716,2.9089805 33.7637636,2.91184877 L14.2234526,3 Z" id="Fill-39" fill="#FFFFFF"></path>
                    <path d="M6.21280831,3 C5.53979043,3.0032276 4.99661524,2.56185551 5,2.01392669 C5.00341652,1.46653876 5.5521564,1.02002815 6.22517428,1.01678276 L9.78750084,1 C10.4602096,0.997040016 11.0033848,1.4384121 11,1.98580003 C10.9965835,2.53345841 10.4481527,2.97996902 9.77513487,2.9832144 L6.21280831,3 Z" id="Fill-41" fill="#FFFFFF"></path>
                    <path d="M34.7879551,21 C35.4607861,20.997038 36.0036383,21.43898 36,21.986739 C35.9963249,22.5350394 35.4478215,22.9813114 34.7746581,22.9842884 L31.2120449,23 C30.5392139,23.002962 29.9963617,22.5612907 30,22.0129903 C30.0033426,21.4652313 30.5521785,21.0184179 31.2250095,21.0157116 L34.7879551,21 Z" id="Fill-43" fill="#FFFFFF"></path>
                    <path d="M25.5079786,20 C26.3364227,19.9953705 27.00463,20.6635045 27,21.4918577 C26.9956541,22.320211 26.3201331,22.9956579 25.491689,23 C24.6635773,23.0043004 23.99537,22.3361664 24,21.5081456 C24.0046783,20.6797924 24.6795345,20.0046778 25.5079786,20" id="Fill-45" fill="#FFFFFF"></path>
                    <path d="M15.2234526,16 C14.5440446,16.0031119 13.9962758,15.5775651 14,15.0492821 C14.0034504,14.5215206 14.5565222,14.0910195 15.2356183,14.0878905 L34.7762413,14 C35.4553373,13.9968881 36.0031062,14.4224349 36,14.9504572 C35.9965554,15.4784794 35.4431716,15.9087198 34.7640756,15.9118488 L15.2234526,16 Z" id="Fill-47" fill="#FFFFFF"></path>
                    <path d="M30.7563117,27 C31.4465474,26.9970392 32.0035912,27.4385313 32,27.9863386 C31.9963739,28.5341459 31.433425,28.980778 30.7431893,28.9837537 L24.2440164,29 C23.5534526,29.0029608 22.9964088,28.5611982 23,28.0136614 C23.0036261,27.4658541 23.5662469,27.019222 24.2568107,27.0162463 L30.7563117,27 Z" id="Fill-49" fill="#FFFFFF"></path>
                    <path d="M30.7563117,7 C31.4465474,6.99677108 32.0035912,7.43859285 32,7.98647349 C31.9963739,8.53435414 31.433425,8.9807754 30.7431893,8.98375154 L24.2440164,9 C23.5534526,9.00296118 22.9964088,8.56140997 23,8.01379989 C23.0036261,7.46591924 23.5662469,7.01922742 24.2568107,7.01625128 L30.7563117,7 Z" id="Fill-51" fill="#FFFFFF"></path>
                    <g id="Group-55" transform="translate(0.000000, 33.000000)">
                        <mask id="mask-6" fill="white">
                            <use xlink:href="#path-5"></use>
                        </mask>
                        <g id="Clip-54"></g>
                        <path d="M1.44858,2.95448504 C0.64428,2.95896 -0.00402,2.35626 -0.000137504085,1.60896 C0.00408,0.86106 0.65898,0.25146 1.46298,0.247234964 C2.26698,0.24276 2.91528,0.84546 2.91110029,1.59306 C2.90688,2.34066 2.25228,2.95026 1.44858,2.95448504" id="Fill-53" fill="#FFFFFF" mask="url(#mask-6)"></path>
                    </g>
                    <g id="Group-58" transform="translate(0.000000, 1.000000)">
                        <mask id="mask-8" fill="white">
                            <use xlink:href="#path-7"></use>
                        </mask>
                        <g id="Clip-57"></g>
                        <path d="M1.44858,2.71835504 C0.64428,2.72283 -0.00402,2.12013 -0.000137504085,1.37283 C0.00408,0.62493 0.65898,0.01533 1.46298,0.0111081815 C2.26698,0.00693 2.91528,0.60963 2.91110029,1.35693 C2.90688,2.10453 2.25228,2.71413 1.44858,2.71835504" id="Fill-56" fill="#FFFFFF" mask="url(#mask-8)"></path>
                    </g>
                    <path d="M18.8882302,21 C19.5053964,20.9968783 20.0033373,21.4240236 20,21.9537046 C19.9969339,22.483124 19.4931994,22.9149775 18.8760332,22.9178548 L1.11176981,23 C0.494603603,23.0026038 -0.00333731783,22.5754585 0,22.0460391 C0.00306608654,21.5166197 0.506495639,21.0845046 1.12366185,21.0818889 L18.8882302,21 Z" id="Fill-59" fill="#FFFFFF"></path>
                    <path d="M6.21311745,16 C5.54009958,16.0032276 4.99661523,15.5615851 5,15.0139267 C5.00341651,14.4665388 5.5521564,14.0200281 6.22517427,14.0167828 L9.78780998,14 C10.4605187,13.99704 11.0033848,14.4384121 11,14.9858 C10.9968926,15.5334584 10.4481527,15.979969 9.77513486,15.9832144 L6.21311745,16 Z" id="Fill-61" fill="#FFFFFF"></path>
                    <path d="M1.49258049,16 C0.663758569,16.0049589 -0.00430714066,15.3370856 0,14.5086435 C0.00403981637,13.6802013 0.67890675,13.0046819 1.50772867,13 C2.33593229,12.9950411 3.00430715,13.6629144 3,14.4913565 C2.99565105,15.3197987 2.32109326,15.9949856 1.49258049,16" id="Fill-63" fill="#FFFFFF"></path>
                    <path d="M79,34.016561 L79,33.9996933 C79,32.3592312 80.4299166,31 82.3815256,31 C83.5021454,31 84.2076281,31.3315273 84.8644815,31.8124105 C84.9127533,31.8535064 84.9613826,31.9117767 84.9613826,31.9863014 C84.9613826,32.1025353 84.835876,32.2015948 84.7003576,32.2015948 C84.6327771,32.2015948 84.5648391,32.1767532 84.5265793,32.1436312 C83.9662694,31.7044572 83.3187128,31.3897976 82.3718713,31.3897976 C80.7488677,31.3897976 79.5216925,32.5251482 79.5216925,33.983439 L79.5216925,33.9996933 C79.5216925,35.4668779 80.7678188,36.6105091 82.3815256,36.6105091 C83.2990465,36.6105091 83.9466031,36.3283582 84.5845054,35.8066857 C84.6234803,35.7735637 84.6810489,35.7401349 84.7582837,35.7401349 C84.8837902,35.7401349 85,35.8395011 85,35.9474545 C85,36.0136986 84.9613826,36.0633817 84.9224076,36.0965038 C84.2369487,36.6436312 83.4924911,37 82.3622169,37 C80.4299166,37 79,35.6821713 79,34.016561" id="Fill-65" fill="#FFFFFF"></path>
                    <path d="M94,31.2204798 C94,31.1016152 94.1082803,31 94.2349983,31 C94.3623869,31 94.4706671,31.1016152 94.4706671,31.2204798 L94.4706671,33.779677 L98.5289977,33.779677 L98.5289977,31.2204798 C98.5289977,31.1016152 98.6376131,31 98.7646664,31 C98.8913845,31 99,31.1016152 99,31.2204798 L99,36.7795202 C99,36.8980712 98.8913845,37 98.7646664,37 C98.6376131,37 98.5289977,36.8980712 98.5289977,36.7795202 L98.5289977,34.1861377 L94.4706671,34.1861377 L94.4706671,36.7795202 C94.4706671,36.8980712 94.3623869,37 94.2349983,37 C94.1082803,37 94,36.8980712 94,36.7795202 L94,31.2204798 Z" id="Fill-67" fill="#FFFFFF"></path>
                    <path d="M109,31.2204798 C109,31.1016152 109.230057,31 109.5,31 C109.769943,31 110,31.1016152 110,31.2204798 L110,36.7795202 C110,36.8980712 109.769943,37 109.5,37 C109.230057,37 109,36.8980712 109,36.7795202 L109,31.2204798 Z" id="Fill-69" fill="#FFFFFF"></path>
                    <path d="M120,31.2217432 C120,31.1021975 120.102393,31 120.222539,31 C120.342685,31 120.445078,31.1021975 120.445078,31.2217432 L120.445078,36.5905793 L123.794579,36.5905793 C123.905532,36.5905793 124,36.6845758 124,36.7956051 C124,36.906319 123.905532,37 123.794579,37 L120.222539,37 C120.102393,37 120,36.8978025 120,36.7782568 L120,31.2217432 Z" id="Fill-71" fill="#FFFFFF"></path>
                    <path d="M134,35.7769906 L134,30.2226922 C134,30.1024638 134.094313,30 134.204686,30 L137.771078,30 C137.873859,30 137.960581,30.0942159 137.960581,30.2058792 C137.960581,30.3169081 137.873859,30.411124 137.771078,30.411124 L134.409957,30.411124 L134.409957,32.7687427 L137.416016,32.7687427 C137.518797,32.7687427 137.605519,32.8626414 137.605519,32.9743047 C137.605519,33.0859681 137.518797,33.1798668 137.416016,33.1798668 L134.409957,33.1798668 L134.409957,35.5882415 L137.810789,35.5882415 C137.912986,35.5882415 138,35.6827747 138,35.794438 C138,35.9057841 137.912986,36 137.810789,36 L134.204686,36 C134.094313,36 134,35.897219 134,35.7769906" id="Fill-73" fill="#FFFFFF"></path>
                </g>
            </g>
        </g>
    </g>
</svg>