<?xml version="1.0" encoding="UTF-8"?>
<svg width="93px" height="94px" viewBox="0 0 93 94" version="1.1" xmlns="http://www.w3.org/2000/svg" xmlns:xlink="http://www.w3.org/1999/xlink">
    <!-- Generator: sketchtool 55.2 (78181) - https://sketchapp.com -->
    <title>98B831BF-D681-40E9-B47E-192D69769055</title>
    <desc>Created with sketchtool.</desc>
    <g id="escritorio" stroke="none" stroke-width="1" fill="none" fill-rule="evenodd">
        <g id="Desktop-HD" transform="translate(-570.000000, -746.000000)">
            <g id="destacado" transform="translate(135.000000, 681.000000)">
                <g id="icon-1" transform="translate(431.000000, 61.000000)">
                    <circle id="Oval-Copy-9" fill="#E5CC51" cx="23" cy="79" r="19"></circle>
                    <rect id="Rectangle" x="0" y="0" width="104" height="104"></rect>
                    <path d="M93.6739909,21.857677 L91.8058763,21.2288385 C91.3388089,21.1030708 90.8717415,20.9773031 90.2880623,20.9773031 C88.186414,20.9773031 86.3182995,22.4863485 85.6176984,24.6242323 L84.5669518,28.0196261 L84.5669518,25.5044392 L84.5669518,25.3788385 C84.5669518,25.0015354 84.3334181,24.6242323 84.0998844,24.3726969 L64.9516714,4.37730309 C64.7181377,4.1257677 64.3678371,4 64.1343034,4 L26.6550903,4 C25.9544892,4 25.4875768,4.50307079 25.4875768,5.25750996 L25.4875768,9.15597456 L21.1675134,9.15597456 C20.4669123,9.15597456 20,9.65904536 20,10.4134845 L20,85.74249 C20,86.4970962 20.4670674,87 21.1675134,87 L77.9117064,87 C78.6123075,87 79.0792199,86.4969292 79.0792199,85.74249 L79.0792199,81.8440254 L83.3992832,81.8440254 C84.0998844,81.8440254 84.5667967,81.3409546 84.5667967,80.5865155 L84.5667967,63.6092124 L87.8359584,58.8303739 L87.9527253,58.4530708 L96.7096189,28.3969292 C97.6437537,25.6303739 96.2427065,22.7378838 93.6739909,21.857677 Z M65.3018168,8.2757677 L80.5970339,24.1213285 L65.3018168,24.1213285 L65.3018168,8.2757677 Z M76.744193,84.4849801 L22.3350269,84.4849801 L22.3350269,11.6711615 L25.4874218,11.6711615 L25.4874218,80.5865155 C25.4874218,81.3411217 25.9544892,81.8440254 26.6549352,81.8440254 L76.744193,81.8440254 L76.744193,84.4849801 L76.744193,84.4849801 Z M82.3485367,79.3290055 L82.2317698,79.3290055 L27.8226037,79.3290055 L27.8226037,6.51518694 L62.9666349,6.51518694 L62.9666349,25.3788385 C62.9666349,26.1334447 63.4337023,26.6363485 64.1341483,26.6363485 L82.3485367,26.6363485 L82.3485367,36.0682577 L76.8608048,54.6803739 L76.8608048,55.057677 L77.0943385,71.0290055 C77.0943385,71.5320763 77.444639,72.0351471 77.9117064,72.1607478 C78.3787738,72.2865155 78.962453,72.1607478 79.1959867,71.657677 L82.3485367,67.1303739 L82.3485367,79.3290055 L82.3485367,79.3290055 Z M79.3127536,67.1303739 L79.0792199,56.69249 L84.9170973,58.7046062 L79.3127536,67.1303739 Z M94.6081257,27.64249 L86.2015326,56.4411217 L79.4295204,54.0517024 L87.8361135,25.3788385 C88.3031809,23.9955608 89.704228,23.1151869 90.9885083,23.6182577 L92.8566229,24.2470962 C94.2578251,24.6242323 95.075038,26.2592124 94.6081257,27.64249 Z" id="Shape" fill="#000000" fill-rule="nonzero"></path>
                    <path d="M35.1584765,28 L51.8415235,28 C52.5367017,28 53,27.4753641 53,26.6885846 L53,13.3114154 C53,12.5244617 52.5365478,12 51.8415235,12 L35.1584765,12 C34.4632983,12 34,12.5246359 34,13.3114154 L34,26.6885846 C34,27.3443794 34.5793152,28 35.1584765,28 Z M36.3171069,14.6228309 L50.6830469,14.6228309 L50.6830469,25.3769949 L36.3171069,25.3769949 L36.3171069,14.6228309 Z" id="Shape" fill="#000000" fill-rule="nonzero"></path>
                    <path d="M33.2036426,38 L69.7963575,38 C70.5186389,38 71,37.3999203 71,36.5 C71,35.5998805 70.518479,35 69.7963575,35 L33.2036426,35 C32.4813611,35 32,35.6000797 32,36.5 C32,37.3999203 32.4813611,38 33.2036426,38 Z" id="Path" fill="#000000" fill-rule="nonzero"></path>
                    <path d="M33.2036425,48 L69.7963575,48 C70.5186389,48 71,47.3999203 71,46.5 C71,45.6000797 70.518479,45 69.7963575,45 L33.2036425,45 C32.4813611,45 32,45.6000797 32,46.5 C32,47.3999203 32.4813611,48 33.2036425,48 Z" id="Path" fill="#000000" fill-rule="nonzero"></path>
                    <path d="M33.2036425,57 L69.7963575,57 C70.5186389,57 71,56.3999203 71,55.5 C71,54.6000797 70.518479,54 69.7963575,54 L33.2036425,54 C32.4813611,54 32,54.6000797 32,55.5 C32,56.3999203 32.4813611,57 33.2036425,57 Z" id="Path" fill="#000000" fill-rule="nonzero"></path>
                    <path d="M71,64.5 C71,63.5998805 70.5169881,63 69.7926307,63 L33.2073693,63 C32.4828515,63 32,63.6000797 32,64.5 C32,65.3999203 32.4830119,66 33.2073693,66 L69.9133837,66 C70.5169881,66 71,65.2499004 71,64.5 Z" id="Path" fill="#000000" fill-rule="nonzero"></path>
                    <path d="M72.9941796,72 L56.1175947,72 C55.4469488,72 55,72.6000797 55,73.5 C55,74.3999203 55.4470972,75 56.1175947,75 L72.8824053,75 C73.5530512,75 74,74.3999203 74,73.5 C74,72.6000797 73.5530512,72 72.9941796,72 Z" id="Path" fill="#000000" fill-rule="nonzero"></path>
                </g>
            </g>
        </g>
    </g>
</svg>