<?xml version="1.0" encoding="UTF-8"?>
<svg width="105px" height="138px" viewBox="0 0 105 138" version="1.1" xmlns="http://www.w3.org/2000/svg" xmlns:xlink="http://www.w3.org/1999/xlink">
    <!-- Generator: sketchtool 55.2 (78181) - https://sketchapp.com -->
    <title>0164D167-6945-405C-B088-C11276680E77</title>
    <desc>Created with sketchtool.</desc>
    <defs>
        <polygon id="path-1" points="0 0 89 0 89 122 0 122"></polygon>
    </defs>
    <g id="escritorio" stroke="none" stroke-width="1" fill="none" fill-rule="evenodd">
        <g id="Desktop-HD" transform="translate(-735.000000, -1561.000000)">
            <g id="registro" transform="translate(0.000000, 1406.000000)">
                <g id="funcionario" transform="translate(735.000000, 152.000000)">
                    <g id="icon" transform="translate(0.000000, 3.000000)">
                        <ellipse id="Oval-Copy-7" fill="#E5CC51" cx="23.5" cy="115" rx="23.5" ry="23"></ellipse>
                        <g id="Group-3" transform="translate(16.000000, 0.000000)">
                            <mask id="mask-2" fill="white">
                                <use xlink:href="#path-1"></use>
                            </mask>
                            <g id="Clip-2"></g>
                            <path d="M55.6561854,81.4596519 L33.3719738,81.4596519 L30.2637728,77.8339888 L35.5860569,76.5306181 C36.3931796,76.3326713 36.9597228,75.59926 36.9597228,74.7777543 L36.9602598,69.2479812 C41.9361738,70.8878084 47.1918689,70.869765 52.0426601,69.299458 C52.0759545,75.0123186 51.9647939,74.8812386 52.1430805,75.3853925 C52.3401624,75.9426154 52.8100442,76.3820254 53.4152519,76.5300874 L58.7729785,77.8424798 L55.6561854,81.4596519 Z M48.7717457,89.4518192 C46.2515682,92.376443 42.7239642,92.3690133 40.2096938,89.4364292 L36.4361402,85.0348997 L52.5764458,85.0348997 L48.7717457,89.4518192 Z M30.6144389,61.3465617 C26.5219027,57.4858036 24.1751787,52.0648216 24.1751787,46.4734887 C24.2825803,42.5814199 23.91473,42.1101686 24.543029,41.52535 C24.7653503,41.3178509 25.0644636,41.1979153 25.4011675,41.2170201 C38.3699052,41.988641 49.5235566,36.354853 56.8880812,26.921336 C58.8733989,30.3670958 61.7855921,31.439617 63.9449003,31.7198205 C64.4840561,31.7898714 64.891108,32.2457327 64.891108,32.7796052 L64.891108,46.7850027 C64.891108,64.5694323 43.3468932,73.3555094 30.6144389,61.3465617 L30.6144389,61.3465617 Z M68.5089294,46.7850027 L68.5089294,46.4549146 C69.6387937,46.2484768 70.6886439,45.8531139 71.6112233,45.3086276 L71.6112233,67.4866264 C71.6112233,68.4169232 70.8449132,69.1736849 69.9035386,69.1736849 L55.6594074,69.1736849 L55.6594074,67.792303 C63.3278784,63.8301834 68.5089294,55.8974532 68.5089294,46.7850027 L68.5089294,46.7850027 Z M68.5089294,35.4553361 C70.0189952,35.8995223 71.1837651,36.8834186 71.6112233,38.0981644 L71.6112233,40.1455602 C71.1837651,41.3603059 70.0189952,42.3442022 68.5089294,42.7883884 L68.5089294,35.4553361 Z M83.6058289,87.403362 C81.9786954,79.3480428 74.3317047,77.9772747 74.3075393,77.9661302 L74.3075393,77.9666609 C74.2253771,77.9427799 75.0094085,78.1364812 55.6594074,73.3969031 L55.6594074,72.7478712 L69.9035386,72.7478712 C72.8393601,72.7478712 75.2279706,70.3873692 75.2279706,67.4860958 L75.2279706,40.6401618 C75.4680131,39.6419369 75.4680131,38.6039104 75.2279706,37.6035628 L75.2279706,27.8054629 C75.2279706,26.8183825 74.4181629,26.0186351 73.4193285,26.0186351 C72.420494,26.0186351 71.6106863,26.8183825 71.6106863,27.8054629 L71.6106863,32.9350969 C70.6564235,32.3720366 69.5652237,31.9681827 68.3902507,31.7681132 C67.9660145,29.9053969 66.4006369,28.4332673 64.4158562,28.1758834 C62.3462282,27.9068244 60.7776285,26.7148982 59.7546287,24.632477 C59.2750807,23.6576024 58.3369282,23.0175922 57.2446544,22.9188841 C56.1513065,22.8217682 55.1159555,23.2829364 54.4683242,24.1548574 C51.3595862,28.3356206 42.7164461,37.7144767 27.7919261,37.713946 C26.6566916,37.713946 25.8866225,37.6608771 25.6181186,37.649202 C22.8761569,37.4862806 20.5573574,39.6514893 20.5573574,42.3670218 L20.5573574,46.4734887 C20.5573574,53.0375734 23.3127442,59.4015887 28.1168158,63.9326062 C29.7101178,65.4355158 31.4677443,66.6890018 33.3419014,67.6888187 L33.3419014,69.1742155 L19.1627482,69.1742155 C18.2213735,69.1742155 17.4550635,68.4169232 17.4550635,67.4866264 L17.4550635,27.3241285 C17.4550635,14.3042194 28.1979039,3.57529205 41.1741598,3.57529205 L41.3003566,3.57529205 C45.9492329,3.6002344 51.3171626,4.90519717 54.9747225,6.89952417 C57.2935221,8.16415462 58.7257218,7.15903079 61.0149859,7.15903079 C66.6030888,7.15903079 71.0811966,12.836866 71.6176674,17.9442111 C71.6208894,18.0190382 71.6289446,18.3188771 71.6300186,19.4662254 C71.6310926,21.1914934 73.6029851,21.3241655 73.4397348,21.2519919 C74.4396432,21.2514612 75.2478399,20.4501217 75.2467659,19.463572 C75.2467659,19.1456896 75.249451,17.9012253 75.2193785,17.6125308 C74.49227,10.5028984 68.3553452,3.58431375 61.0149859,3.58431375 C58.1484384,3.58431375 57.701648,4.30233515 56.7226828,3.769524 C52.5748348,1.50826074 46.5286643,0.0287014865 41.3196889,0.000549646066 C26.3044145,-0.0949489101 13.8377791,12.2663759 13.8377791,27.3241285 L13.8377791,67.4866264 C13.8377791,70.3878999 16.2263897,72.7484019 19.1627482,72.7484019 L33.3419014,72.7484019 L33.3419014,73.3974338 L14.7662655,77.9464948 C14.7421002,77.952863 14.7179348,77.9592313 14.6937695,77.9666609 L13.3362138,78.3620238 C13.2954013,78.3742296 13.2556627,78.3869661 13.2159241,78.4012947 C10.794019,79.2944433 6.55756473,81.6512305 5.39547991,87.4044234 C-0.109386766,114.73063 0.122600591,113.563647 0.109175397,113.657578 C-0.554029202,118.29208 1.79376878,122 7.44147952,122 L26.9998396,122 C27.9992111,122 28.8084818,121.199722 28.8084818,120.212111 C28.8084818,119.22503 27.9986741,118.424752 26.9998396,118.424752 L20.1938031,118.424752 L20.1938031,101.566905 C20.1938031,100.579294 19.3839954,99.7795461 18.3851609,99.7795461 C17.3863265,99.7795461 16.5770557,100.579294 16.5770557,101.566905 L16.5770557,118.424752 L7.44147952,118.424752 C5.03890675,118.424752 3.64429756,117.660561 3.62120623,115.166856 C3.61046607,113.949988 3.56213537,115.136076 8.94295325,88.10334 C9.75329798,84.0945198 12.6987856,82.4201979 14.4241916,81.7716967 L15.6786417,81.4060524 L26.3457641,78.7940041 C38.2120249,92.6083538 37.5090817,91.8760038 38.1948406,92.5372416 C42.155273,96.3550139 47.8067428,96.0859549 51.5265956,91.7688048 L62.6958203,78.8030258 L73.3221301,81.4060524 C73.6298355,81.5456235 78.9193621,82.4653065 80.0578185,88.1028093 C85.3924538,114.901512 85.3908427,113.94415 85.3806396,115.165264 C85.3623813,117.608023 84.025232,118.425283 81.5598293,118.425283 L72.489768,118.425283 L72.489768,101.566905 C72.489768,100.579294 71.6804973,99.7795461 70.6811258,99.7795461 C69.6817544,99.7795461 68.8724837,100.579294 68.8724837,101.566905 L68.8724837,118.424752 L35.4399908,118.424752 C34.4411563,118.424752 33.6313486,119.22503 33.6313486,120.212111 C33.6313486,121.200253 34.4411563,122 35.4399908,122 L81.5598293,122 C86.028808,122 88.9571114,119.569978 88.9992684,115.193391 C89.0129602,113.15024 88.8905224,114.126707 83.6058289,87.403362 L83.6058289,87.403362 Z" id="Fill-1" fill="#000000" mask="url(#mask-2)"></path>
                        </g>
                    </g>
                </g>
            </g>
        </g>
    </g>
</svg>